<svg width="148" height="149" viewBox="0 0 148 149" fill="none" xmlns="http://www.w3.org/2000/svg">
<g id="Group 12">
<path id="Vector" d="M124.28 74.4408C124.28 102.467 101.561 125.186 73.5346 125.186C45.5087 125.186 22.7892 102.467 22.7892 74.4408C22.7892 46.4149 45.5087 23.6954 73.5346 23.6954C101.561 23.6954 124.28 46.4149 124.28 74.4408Z" fill="#EEF866" stroke="black" stroke-width="3.67215"/>
<g id="Group 11">
<g id="Group">
<path id="Vector_2" d="M55.9543 75.3885C59.4294 75.3885 62.2466 69.489 62.2466 62.2117C62.2466 54.9344 59.4294 49.035 55.9543 49.035C52.4792 49.035 49.6621 54.9344 49.6621 62.2117C49.6621 69.489 52.4792 75.3885 55.9543 75.3885Z" fill="black"/>
<path id="Vector_3" d="M91.1155 75.3885C94.5906 75.3885 97.4077 69.489 97.4077 62.2117C97.4077 54.9344 94.5906 49.035 91.1155 49.035C87.6404 49.035 84.8232 54.9344 84.8232 62.2117C84.8232 69.489 87.6404 75.3885 91.1155 75.3885Z" fill="black"/>
</g>
<path id="Vector_4" d="M108.571 90.1539C103.749 88.3422 99.4633 84.0498 97.6516 79.2349L93.7355 80.7051C94.5647 82.9071 95.819 85.0184 97.3659 86.9207C83.8408 99.0522 63.2221 99.0522 49.6969 86.9207C51.2439 85.0254 52.4981 82.914 53.3273 80.7121L49.4112 79.2418C47.5995 84.0638 43.3072 88.3492 38.4922 90.1609L39.9625 94.077C42.4013 93.1572 44.7287 91.7148 46.7773 89.9309C54.3516 96.7806 63.9398 100.209 73.5279 100.209C83.1161 100.209 92.7042 96.7806 100.279 89.9309C102.327 91.7148 104.655 93.1572 107.093 94.077L108.564 90.1609L108.571 90.1539Z" fill="black"/>
</g>
<g id="Group_2">
<path id="Vector_5" d="M76.6355 13.3442L75.1792 0.95491L77.3393 1.10821L78.1894 9.66507L80.1475 1.31028L82.3982 1.47055L79.2068 13.5324L76.6425 13.3512L76.6355 13.3442Z" fill="black"/>
<path id="Vector_6" d="M87.9244 15.1559C87.0534 14.9469 86.3984 14.6194 85.9664 14.1804C85.5343 13.7414 85.2765 13.2049 85.1929 12.5708C85.1093 11.9367 85.172 11.212 85.3671 10.3967L86.4402 5.95802C86.6353 5.14275 86.914 4.4738 87.2764 3.9512C87.6387 3.42859 88.1056 3.07321 88.6909 2.89204C89.2762 2.71087 90.0009 2.7248 90.8719 2.94082C91.7569 3.15683 92.4119 3.47736 92.8578 3.90939C93.2968 4.34141 93.5616 4.87099 93.6383 5.49812C93.7219 6.12525 93.6662 6.84297 93.4641 7.65824L92.391 12.0969C92.1959 12.9122 91.9171 13.5811 91.5548 14.1107C91.1925 14.6403 90.7186 15.0026 90.1263 15.1908C89.534 15.3789 88.8024 15.365 87.9174 15.1559H87.9244ZM88.3495 13.4069C88.663 13.4836 88.9069 13.4697 89.0951 13.3582C89.2762 13.2536 89.4226 13.0864 89.5271 12.8565C89.6316 12.6265 89.7222 12.3757 89.7849 12.1039L91.1507 6.47366C91.2203 6.2019 91.2552 5.93711 91.2621 5.69323C91.2691 5.44934 91.2203 5.23333 91.1019 5.05913C90.9904 4.88492 90.7744 4.75253 90.4608 4.67588C90.1682 4.6062 89.9312 4.62014 89.7501 4.73163C89.5689 4.84312 89.4226 5.00338 89.318 5.22636C89.2135 5.44934 89.1229 5.7002 89.0602 5.97195L87.6945 11.6022C87.6248 11.874 87.5899 12.1387 87.576 12.3896C87.5621 12.6404 87.6108 12.8565 87.7223 13.0307C87.8338 13.2118 88.0429 13.3373 88.3495 13.4069Z" fill="black"/>
<path id="Vector_7" d="M95.9443 17.4972L99.944 7.90213L98.202 7.17745L98.9197 5.46329L104.703 7.87426L103.986 9.58842L102.271 8.8707L98.2717 18.4658L95.9513 17.4972H95.9443Z" fill="black"/>
<path id="Vector_8" d="M102.633 20.5702L108.877 10.0274L113.469 12.7519L112.591 14.2362L110.145 12.7868L108.487 15.588L110.375 16.7029L109.49 18.201L107.602 17.0861L105.644 20.396L108.117 21.8593L107.253 23.3156L102.633 20.5772V20.5702Z" fill="black"/>
<path id="Vector_9" d="M109.943 25.1622L117.761 15.7273L120.068 17.6366C120.869 18.2986 121.405 18.9187 121.684 19.4971C121.963 20.0755 122.012 20.6608 121.83 21.2531C121.656 21.8454 121.28 22.4864 120.716 23.1693L117.866 26.6046C117.287 27.3014 116.716 27.8031 116.158 28.0958C115.601 28.3954 115.009 28.4651 114.396 28.3118C113.782 28.1585 113.079 27.7613 112.298 27.1133L109.943 25.1622ZM112.974 25.413L113.385 25.7475C113.741 26.0402 114.04 26.2004 114.291 26.2074C114.535 26.2213 114.772 26.1308 114.988 25.9426C115.204 25.7545 115.455 25.4967 115.726 25.1692L118.953 21.2809C119.224 20.9534 119.413 20.6747 119.531 20.4308C119.649 20.1869 119.663 19.964 119.587 19.741C119.51 19.525 119.301 19.2741 118.96 18.9884L118.562 18.6609L112.974 25.4061V25.413Z" fill="black"/>
<path id="Vector_10" d="M121.51 36.3321L131.489 29.2176L133.746 32.3812C134.171 32.9804 134.408 33.5518 134.45 34.0884C134.492 34.6249 134.366 35.1405 134.074 35.6283C133.781 36.1161 133.328 36.576 132.722 37.015C132.004 37.5236 131.363 37.8024 130.785 37.8442C130.206 37.886 129.691 37.7606 129.224 37.4609C128.757 37.1613 128.332 36.7432 127.942 36.1997L127.28 35.2729L122.96 38.3598L121.51 36.3251V36.3321ZM128.708 34.2626L129.217 34.9803C129.426 35.2729 129.635 35.468 129.844 35.5656C130.053 35.6562 130.283 35.6632 130.527 35.5656C130.771 35.475 131.057 35.3147 131.377 35.0918C131.684 34.8758 131.921 34.6737 132.095 34.4786C132.269 34.2904 132.36 34.0744 132.36 33.8375C132.36 33.6006 132.248 33.3149 132.004 32.9735L131.503 32.2697L128.708 34.2626Z" fill="black"/>
<path id="Vector_11" d="M127.21 44.9447L138.164 39.4469L140.561 44.22L139.021 44.9935L137.746 42.4501L134.84 43.9065L135.823 45.8645L134.269 46.6449L133.286 44.6869L129.851 46.408L131.14 48.9792L129.628 49.7388L127.217 44.9377L127.21 44.9447Z" fill="black"/>
<path id="Vector_12" d="M131.754 56.0658C131.482 55.2088 131.426 54.4841 131.572 53.8848C131.719 53.2856 132.046 52.7908 132.555 52.3936C133.057 51.9965 133.712 51.6689 134.506 51.4181L138.861 50.0384C139.662 49.7876 140.373 49.6761 141.014 49.7179C141.648 49.7527 142.199 49.9757 142.652 50.3798C143.105 50.784 143.474 51.4181 143.739 52.2752C144.011 53.1392 144.08 53.8709 143.934 54.4771C143.788 55.0764 143.474 55.5781 142.979 55.9683C142.485 56.3655 141.837 56.686 141.042 56.9369L136.687 58.3165C135.886 58.5674 135.168 58.6789 134.527 58.644C133.886 58.6092 133.335 58.3862 132.869 57.9821C132.402 57.5779 132.032 56.9369 131.754 56.0728V56.0658ZM133.468 55.5223C133.565 55.8289 133.705 56.031 133.893 56.1355C134.081 56.2331 134.297 56.2749 134.548 56.247C134.799 56.2191 135.057 56.1634 135.328 56.0798L140.854 54.3308C141.126 54.2472 141.363 54.1426 141.579 54.0242C141.795 53.9057 141.948 53.7455 142.046 53.5573C142.136 53.3692 142.136 53.1183 142.046 52.8117C141.955 52.526 141.816 52.3309 141.634 52.2264C141.446 52.1288 141.23 52.087 140.986 52.1149C140.743 52.1428 140.485 52.1916 140.213 52.2821L134.687 54.0311C134.415 54.1148 134.172 54.2193 133.949 54.3377C133.726 54.4562 133.572 54.6095 133.475 54.7976C133.384 54.9858 133.384 55.2297 133.475 55.5293L133.468 55.5223Z" fill="black"/>
<path id="Vector_13" d="M133.795 63.1803L145.941 61.5706L146.45 65.424C146.547 66.1557 146.484 66.7689 146.275 67.2636C146.059 67.7583 145.711 68.1555 145.216 68.4482C144.728 68.7409 144.108 68.936 143.37 69.0335C142.499 69.152 141.802 69.0893 141.272 68.8593C140.743 68.6294 140.345 68.274 140.067 67.7862C139.788 67.2985 139.614 66.734 139.53 66.0721L139.384 64.9502L134.123 65.647L133.795 63.1733V63.1803ZM141.126 64.7272L141.244 65.5982C141.293 65.9606 141.384 66.2254 141.53 66.4065C141.669 66.5877 141.871 66.6922 142.129 66.734C142.387 66.7758 142.715 66.7619 143.105 66.7131C143.474 66.6644 143.781 66.5947 144.025 66.5041C144.269 66.4135 144.443 66.2672 144.561 66.0581C144.68 65.8491 144.708 65.5425 144.652 65.1314L144.54 64.2743L141.133 64.7272H141.126Z" fill="black"/>
<path id="Vector_14" d="M134.792 73.4304L147.042 73.6813L146.993 76.1758L136.436 75.9598L136.38 78.8307L134.687 78.7959L134.799 73.4234L134.792 73.4304Z" fill="black"/>
<path id="Vector_15" d="M134.366 81.8549L146.47 83.785L145.627 89.0599L143.926 88.7881L144.372 85.98L141.16 85.4643L140.812 87.6314L139.091 87.3597L139.439 85.1926L135.641 84.5864L135.188 87.4224L133.516 87.1576L134.359 81.8549H134.366Z" fill="black"/>
<path id="Vector_16" d="M140.415 92.4813H141.181C141.091 92.8506 141.153 93.1223 141.376 93.2965C141.599 93.4708 141.906 93.6171 142.317 93.7286L142.582 92.7809L144.582 93.3314L144.031 95.3312C143.746 95.2546 143.481 95.1779 143.216 95.1013C142.958 95.0246 142.707 94.948 142.463 94.8713C141.648 94.6275 141.07 94.3278 140.707 93.9794C140.352 93.631 140.254 93.1293 140.422 92.4882L140.415 92.4813Z" fill="black"/>
<path id="Vector_17" d="M129.948 97.8816C130.234 97.1848 130.603 96.6482 131.049 96.2859C131.495 95.9235 132.032 95.7284 132.645 95.7075C133.258 95.6797 133.976 95.8121 134.798 96.1047L134.317 98.23C133.844 98.0558 133.432 97.9443 133.091 97.8955C132.743 97.8467 132.464 97.8746 132.241 97.9722C132.018 98.0697 131.858 98.2439 131.76 98.4878C131.642 98.7874 131.649 99.0244 131.788 99.2125C131.934 99.3937 132.122 99.54 132.366 99.6375C132.84 99.8327 133.286 99.8814 133.704 99.7839C134.122 99.6863 134.568 99.5191 135.049 99.2822L136.554 98.5227C137.084 98.2509 137.62 98.0697 138.178 97.9861C138.735 97.9025 139.341 97.9931 139.996 98.2648C140.93 98.6481 141.536 99.2125 141.808 99.9651C142.08 100.718 142.024 101.568 141.634 102.522C141.404 103.094 141.118 103.519 140.784 103.804C140.449 104.09 140.08 104.271 139.69 104.348C139.293 104.418 138.895 104.418 138.498 104.348C138.094 104.278 137.711 104.174 137.342 104.041L137.857 101.944C138.213 102.069 138.526 102.16 138.805 102.223C139.084 102.285 139.321 102.285 139.523 102.223C139.725 102.16 139.878 102 139.976 101.749C140.087 101.477 140.066 101.233 139.92 101.024C139.773 100.808 139.578 100.655 139.334 100.557C138.93 100.39 138.568 100.348 138.233 100.425C137.899 100.502 137.53 100.641 137.119 100.843L135.641 101.582C135.035 101.888 134.401 102.104 133.732 102.23C133.063 102.355 132.345 102.258 131.572 101.944C131.042 101.728 130.61 101.407 130.276 100.989C129.948 100.571 129.746 100.097 129.684 99.5609C129.621 99.0244 129.705 98.4669 129.948 97.8816Z" fill="black"/>
<path id="Vector_18" d="M124.604 108.348L134.554 115.504L131.537 119.706L130.164 118.716L131.725 116.542L129.036 114.605L127.712 116.445L126.297 115.427L127.621 113.588L123.147 110.375L124.604 108.348Z" fill="black"/>
<path id="Vector_19" d="M120.255 114.236L127.439 124.444L125.523 126.437L115.057 119.643L116.66 117.978L118.904 119.532L120.248 118.138L118.632 115.936L120.255 114.243V114.236ZM121.189 119.35L120.172 120.409L124.248 123.308L121.189 119.357V119.35Z" fill="black"/>
<path id="Vector_20" d="M111.56 122.5L120.827 130.848L119.106 132.158L112.828 126.291L116.87 133.858L115.072 135.224L109.511 124.054L111.56 122.5Z" fill="black"/>
<path id="Vector_21" d="M101.86 128.597C102.654 128.179 103.358 127.991 103.971 128.033C104.584 128.074 105.135 128.311 105.609 128.736C106.09 129.161 106.522 129.747 106.912 130.485L109.03 134.534C109.42 135.273 109.65 135.962 109.727 136.596C109.804 137.231 109.678 137.802 109.358 138.325C109.037 138.847 108.48 139.314 107.685 139.732C106.884 140.15 106.173 140.345 105.553 140.31C104.933 140.276 104.389 140.046 103.915 139.635C103.442 139.216 103.01 138.638 102.619 137.9L100.501 133.851C100.111 133.112 99.8809 132.423 99.8043 131.782C99.7276 131.14 99.8461 130.562 100.167 130.026C100.487 129.496 101.045 129.015 101.853 128.597H101.86ZM102.696 130.193C102.41 130.339 102.236 130.52 102.166 130.715C102.097 130.91 102.104 131.133 102.166 131.377C102.236 131.621 102.334 131.865 102.466 132.116L105.156 137.245C105.288 137.495 105.428 137.718 105.588 137.906C105.748 138.095 105.922 138.22 106.124 138.283C106.326 138.339 106.57 138.297 106.856 138.143C107.121 138.004 107.288 137.83 107.358 137.635C107.427 137.44 107.42 137.217 107.358 136.98C107.288 136.743 107.19 136.499 107.058 136.248L104.368 131.12C104.236 130.869 104.097 130.646 103.936 130.451C103.783 130.255 103.602 130.123 103.4 130.067C103.198 130.012 102.961 130.053 102.682 130.2L102.696 130.193Z" fill="black"/>
<path id="Vector_22" d="M95.1988 131.879L98.864 143.572L95.8329 144.519C95.0455 144.763 94.3417 144.889 93.7215 144.889C93.1014 144.889 92.5718 144.707 92.1258 144.352C91.6799 143.997 91.3315 143.418 91.0806 142.617C90.9273 142.136 90.8367 141.697 90.8019 141.3C90.767 140.903 90.8088 140.534 90.9343 140.199C91.0597 139.865 91.2757 139.551 91.6032 139.265L88.1958 134.067L90.6347 133.301L93.6379 138.178L94.4741 137.913L92.8157 132.618L95.1988 131.872V131.879ZM94.92 139.342L94.2302 139.558C93.8469 139.676 93.5613 139.837 93.3801 140.032C93.1989 140.227 93.1014 140.464 93.0874 140.75C93.0735 141.035 93.1292 141.363 93.2477 141.739C93.4149 142.276 93.6449 142.659 93.9306 142.882C94.2163 143.105 94.6274 143.133 95.1709 142.958L95.9792 142.708L94.927 139.342H94.92Z" fill="black"/>
<path id="Vector_23" d="M84.8511 134.687L86.8579 146.777L84.4121 147.181L82.4053 135.091L84.8511 134.687Z" fill="black"/>
<path id="Vector_24" d="M77.646 135.6L78.1268 145.983L80.0152 145.892L80.0988 147.752L73.8414 148.045L73.7578 146.185L75.6183 146.101L75.1375 135.718L77.646 135.6Z" fill="black"/>
<path id="Vector_25" d="M70.2949 135.684L69.18 147.885L63.8633 147.397L64.0166 145.683L66.8526 145.941L67.1453 142.701L64.9573 142.498L65.1175 140.763L67.2986 140.966L67.647 137.14L64.7831 136.882L64.9364 135.196L70.2879 135.684H70.2949Z" fill="black"/>
<path id="Vector_26" d="M56.4834 133.412L52.428 144.972L49.5014 143.948C48.9997 143.774 48.5467 143.565 48.1496 143.328C47.7524 143.091 47.4249 142.805 47.174 142.471C46.9232 142.136 46.7768 141.746 46.735 141.3C46.6932 140.854 46.7838 140.317 46.9998 139.704C47.1601 139.237 47.3691 138.861 47.62 138.582C47.8708 138.304 48.1496 138.109 48.4631 138.004C48.7767 137.9 49.1251 137.879 49.5083 137.941C49.0833 137.718 48.7628 137.433 48.5398 137.091C48.3168 136.75 48.1983 136.353 48.1844 135.907C48.1705 135.461 48.261 134.966 48.4492 134.415C48.6513 133.837 48.9021 133.356 49.2017 132.98C49.5014 132.604 49.8428 132.325 50.2191 132.151C50.6023 131.977 51.0274 131.893 51.4943 131.9C51.9611 131.907 52.4698 132.011 53.0203 132.207L56.4765 133.419L56.4834 133.412ZM51.7103 139.481L51.1249 139.279C50.7138 139.133 50.3863 139.084 50.1355 139.133C49.8846 139.182 49.6756 139.307 49.5083 139.523C49.3411 139.739 49.1948 140.018 49.0763 140.373C48.9509 140.722 48.9161 141.028 48.9579 141.286C48.9997 141.544 49.1321 141.76 49.3341 141.941C49.5432 142.122 49.8358 142.276 50.2052 142.408L50.6302 142.561L51.7103 139.495V139.481ZM53.5499 134.241L52.8949 134.011C52.3026 133.802 51.8496 133.809 51.5221 134.025C51.1946 134.241 50.9298 134.645 50.7208 135.238C50.5605 135.698 50.4839 136.074 50.4978 136.387C50.5048 136.694 50.6093 136.952 50.7905 137.168C50.9786 137.377 51.2713 137.551 51.6615 137.69L52.2747 137.906L53.5568 134.255L53.5499 134.241Z" fill="black"/>
<path id="Vector_27" d="M43.4951 127.663C44.3034 128.123 44.8539 128.611 45.1465 129.141C45.4392 129.67 45.5228 130.249 45.4113 130.869C45.2928 131.496 45.0281 132.179 44.603 132.924L40.4779 140.22L38.3317 139.007L42.631 131.412C42.7774 131.147 42.9097 130.876 43.0143 130.604C43.1188 130.325 43.1467 130.074 43.0979 129.837C43.0491 129.6 42.8888 129.405 42.6031 129.245C42.3105 129.078 42.0527 129.043 41.8297 129.12C41.6067 129.203 41.4046 129.357 41.2235 129.594C41.0423 129.83 40.882 130.074 40.7287 130.339L36.4294 137.934L34.2832 136.722L38.4083 129.426C38.8334 128.681 39.2793 128.095 39.7532 127.677C40.227 127.259 40.7705 127.036 41.3698 127.008C41.969 126.98 42.6798 127.203 43.4881 127.656L43.4951 127.663Z" fill="black"/>
<path id="Vector_28" d="M37.1262 123.845L29.301 133.273L26.8552 131.245C26.2211 130.715 25.7334 130.193 25.3989 129.67C25.0644 129.148 24.9251 128.604 24.9878 128.04C25.0435 127.475 25.3431 126.869 25.8797 126.221C26.2002 125.831 26.5208 125.517 26.8343 125.273C27.1479 125.029 27.4824 124.869 27.8308 124.786C28.1792 124.702 28.5624 124.723 28.9735 124.841L31.489 119.162L33.454 120.793L30.9873 125.963L31.6632 126.521L35.21 122.249L37.1332 123.845H37.1262ZM30.7086 127.663L30.1512 127.196C29.8376 126.939 29.5519 126.785 29.2941 126.737C29.0363 126.688 28.7784 126.737 28.5345 126.883C28.2907 127.029 28.0398 127.252 27.789 127.552C27.4266 127.984 27.2315 128.381 27.2036 128.743C27.1758 129.106 27.3778 129.468 27.8099 129.823L28.4649 130.367L30.7156 127.656L30.7086 127.663Z" fill="black"/>
<path id="Vector_29" d="M27.1403 114.173C27.6769 114.807 27.9695 115.413 28.0113 116.013C28.0601 116.605 27.9068 117.19 27.5514 117.762C27.1961 118.333 26.6944 118.89 26.0533 119.441L22.9246 122.096C22.2557 122.66 21.6076 123.071 20.9875 123.322C20.3673 123.573 19.7541 123.608 19.1479 123.427C18.5416 123.246 17.9494 122.807 17.364 122.117C16.7996 121.448 16.4582 120.828 16.3537 120.249C16.2491 119.671 16.3258 119.127 16.5906 118.612C16.8554 118.096 17.2665 117.601 17.8309 117.128L18.3744 116.668L19.9492 118.528L19.2942 119.086C19.0503 119.295 18.8413 119.497 18.681 119.685C18.5207 119.873 18.4302 120.075 18.4162 120.277C18.4023 120.479 18.4998 120.702 18.7089 120.953C18.9249 121.204 19.1479 121.336 19.3778 121.343C19.6078 121.35 19.8377 121.281 20.0677 121.134C20.2976 120.995 20.5276 120.821 20.7575 120.626L24.8966 117.114C25.1614 116.891 25.3704 116.668 25.5446 116.445C25.7119 116.222 25.8024 115.999 25.8094 115.776C25.8164 115.553 25.7188 115.323 25.5167 115.079C25.3147 114.842 25.0987 114.71 24.8617 114.682C24.6248 114.654 24.3809 114.71 24.1301 114.835C23.8792 114.967 23.6144 115.142 23.3427 115.372L22.3532 116.215L23.1267 117.128L21.97 118.103L19.7402 115.469L24.5412 111.4L25.6004 112.647L24.8548 113.476C25.245 113.358 25.6352 113.344 26.0254 113.434C26.4156 113.525 26.7919 113.776 27.1473 114.194L27.1403 114.173Z" fill="black"/>
<path id="Vector_30" d="M22.4373 108.313L11.9642 114.682L9.19092 110.118L10.6612 109.219L12.1384 111.651L14.9187 109.957L13.7759 108.083L15.2602 107.177L16.4029 109.051L19.6849 107.052L18.1937 104.599L19.6431 103.721L22.4304 108.313H22.4373Z" fill="black"/>
<path id="Vector_31" d="M18.1381 100.829L6.78702 105.456L5.5885 102.515C5.27494 101.749 5.09377 101.059 5.04499 100.439C4.99621 99.8187 5.12861 99.2752 5.44914 98.8014C5.76967 98.3275 6.31319 97.9303 7.09362 97.6168C7.56048 97.4286 7.99251 97.2962 8.38272 97.2335C8.77294 97.1638 9.14225 97.1778 9.49065 97.2684C9.83906 97.359 10.1666 97.5541 10.4732 97.8537L15.3648 94.0282L16.3334 96.3974L11.7205 99.7978L12.048 100.613L17.1904 98.5157L18.1311 100.829H18.1381ZM10.6822 101.171L10.4104 100.495C10.2571 100.118 10.076 99.8535 9.86693 99.6863C9.65789 99.5191 9.41401 99.4424 9.12831 99.4564C8.84262 99.4703 8.52208 99.547 8.15277 99.7003C7.63016 99.9163 7.26782 100.174 7.07271 100.474C6.87761 100.78 6.88457 101.191 7.09362 101.714L7.41415 102.501L10.6752 101.171H10.6822Z" fill="black"/>
<path id="Vector_32" d="M13.2877 85.4853L1.191 87.4294L0.800781 84.9766L12.8975 83.0325L13.2877 85.4853Z" fill="black"/>
<path id="Vector_33" d="M12.4102 79.3185L0.160267 79.6251L0.118458 77.883L6.43158 74.9982L0.0487769 75.1585L0 73.1029L12.25 72.7963L12.2918 74.4617L5.58147 77.3535L12.3545 77.1862L12.4102 79.3185Z" fill="black"/>
<path id="Vector_34" d="M13.1975 63.5635L1.26807 60.7484L1.66525 59.0552L8.50795 57.8706L2.29238 56.4003L2.76621 54.4005L14.6956 57.2156L14.3124 58.8322L7.09342 59.9262L13.6922 61.487L13.2045 63.5635H13.1975Z" fill="black"/>
<path id="Vector_35" d="M15.9359 53.5712L4.5918 48.9374L6.61255 43.9901L8.20826 44.6451L7.13516 47.279L10.1454 48.5124L10.9746 46.4846L12.5842 47.1396L11.755 49.1674L15.3088 50.6237L16.3958 47.9619L17.9636 48.603L15.9289 53.5782L15.9359 53.5712Z" fill="black"/>
<path id="Vector_36" d="M20.0055 44.5963L8.80078 39.3841L9.92962 37.5933L16.7096 40.8823L10.9679 35.9767L11.8668 34.5552L18.7652 37.5933L12.905 32.8829L14.0199 31.1199L23.5314 39.0009L22.4026 40.7917L15.2045 37.6491L21.1553 42.7567L19.9986 44.5824L20.0055 44.5963Z" fill="black"/>
<path id="Vector_37" d="M31.4961 29.9772L28.2281 26.3816L21.4829 22.5143L23.218 20.9395L27.0923 23.2459L25.0994 19.2323L26.7787 17.7063L30.0049 24.765L33.273 28.3606L31.4961 29.9772Z" fill="black"/>
<path id="Vector_38" d="M40.2617 23.3017C39.5091 23.7895 38.8263 24.0403 38.2061 24.0612C37.5929 24.0752 37.0215 23.894 36.5059 23.5177C35.9902 23.1414 35.5025 22.5979 35.0426 21.8941L32.548 18.0617C32.0881 17.3579 31.7954 16.6959 31.663 16.0757C31.5306 15.4556 31.5934 14.8703 31.8651 14.3198C32.1369 13.7693 32.6455 13.2536 33.3981 12.7659C34.1576 12.2711 34.8475 12.0133 35.4676 11.9924C36.0878 11.9715 36.6522 12.1457 37.1609 12.515C37.6765 12.8843 38.1573 13.4209 38.6172 14.1247L41.1118 17.9571C41.5717 18.6609 41.8644 19.3229 42.0037 19.95C42.1431 20.5772 42.0734 21.1694 41.8086 21.7269C41.5438 22.2843 41.0282 22.8139 40.2687 23.3087L40.2617 23.3017ZM39.2792 21.7896C39.551 21.6154 39.7112 21.4203 39.753 21.2182C39.8018 21.0161 39.7739 20.7932 39.6834 20.5562C39.5928 20.3193 39.4673 20.0894 39.314 19.8525L36.1505 14.9957C35.9972 14.7588 35.83 14.5497 35.6558 14.3755C35.4816 14.2013 35.2934 14.0898 35.0844 14.055C34.8753 14.0132 34.6384 14.0829 34.3667 14.2571C34.1158 14.4243 33.9625 14.6055 33.9137 14.8145C33.865 15.0166 33.8859 15.2396 33.9765 15.4695C34.067 15.6995 34.1855 15.9364 34.3458 16.1733L37.5093 21.0301C37.6626 21.267 37.8298 21.476 37.9971 21.6572C38.1713 21.8384 38.3594 21.9499 38.5685 21.9917C38.7775 22.0335 39.0074 21.9638 39.2722 21.7966L39.2792 21.7896Z" fill="black"/>
<path id="Vector_39" d="M46.5747 19.4135L41.8154 8.11814L44.742 6.88478C45.5016 6.56425 46.1914 6.37611 46.8116 6.32036C47.4248 6.26462 47.9753 6.39005 48.4491 6.70361C48.9229 7.01718 49.3271 7.56069 49.6546 8.33415C49.8497 8.80102 49.9821 9.22607 50.0587 9.61629C50.1284 10.0065 50.1214 10.3758 50.0309 10.7242C49.9403 11.0726 49.7521 11.4001 49.4525 11.7137L53.3337 16.5635L50.9785 17.553L47.5293 12.9819L46.721 13.3233L48.8741 18.4379L46.5747 19.4065V19.4135ZM46.1426 11.9645L46.8116 11.6858C47.1809 11.5256 47.4526 11.3444 47.6129 11.1353C47.7732 10.9263 47.8498 10.6754 47.8359 10.3967C47.822 10.111 47.7383 9.79049 47.585 9.42815C47.369 8.90554 47.1042 8.55017 46.7976 8.35506C46.491 8.15995 46.0799 8.17389 45.5573 8.3899L44.7769 8.7174L46.1426 11.9645Z" fill="black"/>
<path id="Vector_40" d="M56.776 15.5113L54.0654 3.56099L56.4973 3.01051L57.6401 8.05543L58.6505 2.52274L61.0127 1.98619L59.9883 7.86729L63.8835 13.9017L61.4307 14.4591L58.3717 9.51874L58.1418 10.2852L59.2009 14.9608L56.7691 15.5113H56.776Z" fill="black"/>
</g>
</g>
</svg>
