<svg width="126" height="91" viewBox="0 0 126 91" fill="none" xmlns="http://www.w3.org/2000/svg">
<path d="M6.69814 88.9144L1.59267 9.07748L118.637 1.59268L123.742 81.4296L6.69814 88.9144Z" fill="white" stroke="black" stroke-width="3"/>
<path d="M19.8395 41.8075C18.1043 41.9184 16.7119 41.6954 15.6621 41.1385C14.6123 40.5815 13.8303 39.7387 13.3155 38.6015C12.8013 37.4728 12.4966 36.0968 12.3933 34.4825L11.8292 25.6598C11.7259 24.0455 11.8534 22.6505 12.2203 21.4742C12.5871 20.2979 13.2559 19.371 14.2279 18.7107C15.1993 18.0418 16.5525 17.6519 18.2877 17.541C20.0229 17.43 21.4499 17.6508 22.5077 18.1986C23.5656 18.7463 24.3557 19.58 24.8683 20.6827C25.3809 21.7854 25.6856 23.1615 25.7888 24.7758L26.353 33.5984C26.4562 35.2127 26.3293 36.6164 25.963 37.8013C25.5967 38.9863 24.9284 39.9218 23.9414 40.6177C22.9625 41.3044 21.5925 41.704 19.8401 41.8161L19.8395 41.8075ZM19.617 38.3285C20.2386 38.2888 20.6873 38.1214 20.9626 37.8177C21.2379 37.5141 21.4035 37.1221 21.4767 36.6407C21.5413 36.1598 21.5606 35.6472 21.5252 35.0947L20.8098 23.9067C20.775 23.3628 20.6906 22.8568 20.5659 22.3967C20.4411 21.9366 20.2183 21.5695 19.9071 21.312C19.5953 21.0459 19.129 20.937 18.5074 20.9768C17.9204 21.0143 17.4976 21.18 17.2223 21.4837C16.947 21.7873 16.7808 22.1707 16.707 22.6435C16.6419 23.1157 16.6227 23.6284 16.6575 24.1722L17.3729 35.3602C17.4077 35.9041 17.4834 36.4106 17.6007 36.8885C17.7174 37.3578 17.9316 37.7255 18.2433 37.9916C18.555 38.2577 19.0128 38.3671 19.617 38.3285Z" fill="black"/>
<path d="M29.1678 40.8903L27.6546 17.2281L33.7838 16.8361C35.3809 16.734 36.7565 16.8281 37.9192 17.1178C39.0819 17.4075 39.9946 17.9905 40.6661 18.8664C41.3375 19.7423 41.7294 20.9914 41.8327 22.6057C41.895 23.5812 41.8639 24.45 41.7474 25.2029C41.6314 25.9644 41.3793 26.6307 41.0008 27.2183C40.6131 27.7978 40.0548 28.2843 39.3161 28.6609L43.3254 39.985L38.3875 40.3007L34.9826 29.7528L33.2906 29.861L33.9762 40.5828L29.1592 40.8909L29.1678 40.8903ZM33.1165 27.003L34.515 26.9136C35.2919 26.8639 35.8966 26.6952 36.3294 26.4162C36.7623 26.1371 37.0483 25.7288 37.2051 25.1987C37.3532 24.6691 37.4073 24.0242 37.3588 23.2645C37.2892 22.1768 37.0371 21.3522 36.6036 20.8078C36.1695 20.2548 35.4002 20.0179 34.3125 20.0875L32.6809 20.1918L33.1159 26.9944L33.1165 27.003Z" fill="black"/>
<path d="M51.2121 39.8272C49.615 39.9293 48.3245 39.6738 47.3491 39.0601C46.3737 38.4463 45.6396 37.5398 45.163 36.3221C44.687 35.113 44.3962 33.684 44.2919 32.0524L43.7857 24.1363C43.6775 22.4442 43.7914 20.9721 44.1187 19.7203C44.4461 18.4685 45.1024 17.4817 46.0872 16.7513C47.0633 16.0214 48.4322 15.6045 50.1847 15.4924C51.9371 15.3804 53.233 15.5835 54.253 16.0817C55.273 16.5799 56.0322 17.3375 56.5209 18.3377C57.0188 19.3461 57.3044 20.5587 57.3949 21.9744L57.4827 23.347L52.7778 23.6479L52.6713 21.9818C52.6316 21.3602 52.5617 20.8099 52.4536 20.3401C52.3456 19.8703 52.14 19.502 51.838 19.2526C51.5355 18.9946 51.0783 18.8938 50.4567 18.9336C49.8352 18.9733 49.3536 19.1688 49.0902 19.5237C48.8177 19.8705 48.6635 20.3051 48.6189 20.828C48.5743 21.351 48.5659 21.8976 48.6035 22.4846L49.2742 32.9734C49.3167 33.6381 49.4147 34.2212 49.5606 34.7407C49.7151 35.2595 49.9569 35.6515 50.2951 35.9245C50.6333 36.1976 51.1088 36.3146 51.7131 36.2759C52.3174 36.2373 52.7736 36.0521 53.0818 35.7203C53.39 35.3886 53.596 34.9507 53.6826 34.4077C53.7779 33.8642 53.7997 33.256 53.7561 32.5741L53.5954 30.0619L51.2905 30.2093L51.1039 27.2915L57.7597 26.8659L58.5364 39.0121L55.3855 39.2136L54.9556 37.1001C54.6907 37.8365 54.2626 38.4619 53.6709 38.9678C53.0791 39.4738 52.2566 39.7604 51.2035 39.8277L51.2121 39.8272Z" fill="black"/>
<path d="M59.7968 38.9317L62.8681 14.9849L68.2118 14.6432L74.2825 38.0054L69.8107 38.2913L68.6324 33.1485L64.8944 33.3876L64.3203 38.6424L59.7968 38.9317ZM65.1459 30.407L67.9774 30.2259L65.9338 20.7698L65.1459 30.407Z" fill="black"/>
<path d="M75.8022 37.9082L74.2891 14.246L77.6472 14.0312L83.6928 26.0225L82.9045 13.695L86.8755 13.4411L88.3882 37.0947L85.1768 37.3001L79.0826 24.5491L79.9195 37.6363L75.8017 37.8996L75.8022 37.9082Z" fill="black"/>
<path d="M91.1684 36.9256L89.6553 13.2633L94.4464 12.9569L95.959 36.6105L91.1679 36.9169L91.1684 36.9256Z" fill="black"/>
<path d="M105.294 36.3427C103.542 36.4548 102.131 36.2156 101.07 35.616C100.008 35.0165 99.2334 34.1472 98.7434 32.991C98.2626 31.8429 97.9677 30.4836 97.8683 28.9297L97.3251 20.4351C97.2207 18.8035 97.3379 17.3832 97.6681 16.1745C97.9987 14.9745 98.6567 14.0136 99.6431 13.3091C100.621 12.6052 101.99 12.1882 103.742 12.0762C105.495 11.9641 106.782 12.1678 107.785 12.6671C108.787 13.1664 109.521 13.9257 109.984 14.9276C110.447 15.9381 110.722 17.1167 110.809 18.4807L110.936 20.4662L106.266 20.7649L106.124 18.5462C106.089 18.0024 106.03 17.4947 105.939 17.0151C105.848 16.5442 105.668 16.1657 105.381 15.8806C105.103 15.5951 104.636 15.4776 103.997 15.5184C103.358 15.5593 102.893 15.745 102.628 16.074C102.355 16.4036 102.199 16.8209 102.153 17.3179C102.107 17.815 102.108 18.3697 102.146 18.9739L102.834 29.7217C102.876 30.3864 102.965 30.9615 103.109 31.4464C103.244 31.9318 103.475 32.2984 103.794 32.5467C104.113 32.7863 104.554 32.8969 105.115 32.861C105.736 32.8212 106.176 32.6458 106.416 32.3271C106.655 32.0083 106.802 31.5916 106.839 31.0865C106.875 30.5727 106.876 30.0353 106.84 29.4741L106.692 27.1692L111.363 26.8706L111.488 28.8302C111.576 30.2114 111.456 31.45 111.136 32.5366C110.815 33.6233 110.195 34.5037 109.285 35.1774C108.374 35.851 107.048 36.2479 105.312 36.3589L105.294 36.3427Z" fill="black"/>
<path d="M58.1694 68.7931L58.2748 70.4419C56.8546 71.9543 55.6412 73.1761 54.6438 74.1153C53.6372 75.0465 52.6342 75.8994 51.6338 76.6568C50.6248 77.4148 49.793 77.9621 49.1125 78.3003C48.4407 78.638 47.8544 78.8228 47.3623 78.8543C46.1883 78.9294 45.1933 78.5509 44.3951 77.7265C43.5883 76.9026 43.1448 75.7955 43.0559 74.4056C42.9543 72.8172 43.1727 71.217 43.7208 69.6217C44.2683 68.0178 45.0807 66.3536 46.1655 64.6113C47.2502 62.869 48.6244 60.9088 50.2967 58.7302C51.5371 57.1167 52.1472 56.2195 52.1345 56.021C52.1273 55.9087 52.0781 55.8165 51.9954 55.7438C51.9127 55.6711 51.8236 55.6334 51.7287 55.6395C51.4265 55.6588 50.5367 56.3832 49.0684 57.8206C47.5914 59.2586 45.7226 61.3458 43.4457 64.1004C41.1683 66.8465 38.7329 70.1053 36.13 73.8604C35.9781 74.0608 35.5188 74.7402 34.7348 75.8999C33.9508 77.0595 33.401 77.8141 33.0686 78.1734C32.7362 78.5327 32.4445 78.7161 32.1942 78.7321C31.7453 78.7608 31.3367 78.3362 30.9513 77.4594C30.5658 76.5825 30.3405 75.6348 30.2754 74.6161C30.2356 73.9946 30.3917 73.3172 30.7516 72.5747C31.1115 71.8323 31.9098 70.4897 33.1556 68.5551C34.3923 66.6123 35.4232 64.9775 36.2312 63.6516C37.0393 62.3258 37.9159 60.7181 38.8705 58.8368C39.5409 57.5284 40.0294 56.4917 40.3358 55.7266C40.6423 54.9616 40.7811 54.2853 40.7446 53.7155C40.7132 53.2235 40.5504 52.9825 40.2655 53.0007C39.6612 53.0394 38.5736 53.9237 37.0107 55.6446C35.4479 57.3654 33.5295 59.8978 31.2809 63.2314C29.0243 66.5742 26.6956 70.4157 24.2958 74.7732C23.5156 76.2619 22.9553 77.2599 22.6155 77.7757C22.2844 78.291 21.8947 78.5673 21.4458 78.596C20.8847 78.6319 20.3286 78.0693 19.7696 76.9176C19.2105 75.7658 18.9075 74.823 18.8606 74.0892C18.8451 73.8475 18.9235 73.5825 19.0952 73.2855C21.0141 70.3543 22.5883 67.8613 23.8189 65.8236C25.0489 63.7773 26.1301 61.8445 27.0626 60.0253C27.9951 58.2061 28.6707 56.7066 29.0726 55.5368C29.4745 54.3669 29.6594 53.4623 29.6174 52.8062C29.5755 52.1501 29.241 51.7988 28.6194 51.8385C28.1101 51.8711 27.2678 52.2543 26.0833 52.9802C24.8995 53.7146 23.4111 54.7026 21.6101 55.9533C19.8091 57.204 18.3709 58.1628 17.2781 58.8307C16.1853 59.4987 15.3672 59.8544 14.8061 59.8903C14.2795 59.924 14.0017 59.647 13.9642 59.06C13.9427 58.7233 14.0058 57.9478 14.1535 56.7335C14.3012 55.5192 14.4716 54.6589 14.6818 54.1513C14.9776 53.491 15.7787 52.599 17.084 51.458C18.3892 50.317 19.1158 49.7505 19.2625 49.7411C19.392 49.7328 19.4558 49.7808 19.4629 49.893C19.4668 49.9534 19.4124 50.0522 19.2912 50.19C18.6688 50.7586 18.213 51.2211 17.9146 51.5696C17.6167 51.9267 17.4413 52.302 17.389 52.704C20.1862 50.7655 22.7082 49.2694 24.946 48.2075C27.1838 47.1456 28.7516 46.5859 29.6408 46.529C30.0897 46.5003 30.5233 46.776 30.9672 47.3457C31.4024 47.916 31.7832 48.585 32.1102 49.3616C32.4373 50.1381 32.6074 50.63 32.6218 50.8544C32.6737 51.6659 32.5278 52.6374 32.1841 53.7689C31.8403 54.9004 31.3615 56.2225 30.7469 57.7267C30.1329 59.2395 29.3688 61.1174 28.465 63.3855C29.2259 62.2707 29.9479 61.2277 30.641 60.2732C31.3341 59.3188 32.0202 58.3907 32.6988 57.4805C33.3865 56.5784 34.0818 55.6585 34.7858 54.738C35.7455 53.4805 36.8294 52.267 38.0542 51.0878C39.279 49.9086 40.4226 48.9514 41.5002 48.1804C42.5777 47.4093 43.3159 47.0241 43.713 46.9987C44.2741 46.9628 44.7855 47.2335 45.2649 47.8183C45.7444 48.403 46.0022 49.0453 46.0469 49.7446C46.0761 50.2021 45.8309 51.1106 45.3099 52.4528C44.789 53.7949 44.0156 55.526 42.9799 57.6292C41.9448 59.7411 40.5846 62.4631 38.8821 65.7965C40.5719 63.7555 42.3274 61.6582 44.1567 59.4956C45.9861 57.3329 47.3414 55.7554 48.2395 54.7531C49.1375 53.7509 49.8859 52.9836 50.4846 52.4512C51.314 51.7308 52.1482 50.9493 52.9796 50.1247C53.811 49.3001 54.4711 48.6424 54.9522 48.1696C55.4329 47.6881 55.8602 47.3227 56.2419 47.0556C56.6235 46.7885 56.9789 46.6531 57.3156 46.6316C57.73 46.6051 58.2783 47.0467 58.9697 47.9647C59.6612 48.8826 60.0112 49.4756 60.0283 49.7433C60.0498 50.0799 59.8853 50.4892 59.5434 50.9705C59.2014 51.4517 58.4797 52.3647 57.3776 53.7007C55.3593 56.1615 53.6356 58.6207 52.1984 61.0877C50.7613 63.5546 49.6902 65.7814 48.9948 67.7849C48.2995 69.7883 47.992 71.3509 48.0643 72.4817C48.109 73.181 48.2711 73.682 48.5591 73.9843C48.8472 74.2866 49.2629 74.4161 49.8153 74.3807C50.3247 74.3482 50.7934 74.2229 51.2215 74.0048C51.6496 73.7867 52.116 73.4882 52.6286 73.1C53.1412 72.7118 53.6209 72.3518 54.0752 72.002C54.7146 71.5624 55.3436 71.0974 55.9618 70.5985C56.58 70.0996 57.0581 69.7136 57.3954 69.432C57.7328 69.1504 57.9883 68.9433 58.1624 68.8195L58.1694 68.7931Z" fill="black"/>
<path d="M60.4152 69.603L60.4533 70.1987C60.5134 71.1396 60.7929 71.8499 61.2841 72.3472C61.7753 72.8446 62.3962 73.0649 63.1472 73.0169C63.8982 72.9688 64.724 72.734 65.5377 72.3093C66.3518 71.8931 67.1491 71.3481 67.9392 70.6908C68.7293 70.0335 69.6874 69.1574 70.8136 68.0626L70.9069 69.5215C69.2499 71.8032 67.6639 73.5688 66.1661 74.8175C64.669 76.0747 63.0997 76.7472 61.4768 76.8509C60.061 76.9415 58.9034 76.4608 58.0046 75.4174C57.1057 74.374 56.5953 72.8984 56.4733 70.9906C56.3662 69.3159 56.658 67.7803 57.3564 66.3661C58.0461 64.9525 59.2321 63.4377 60.8966 61.8144C62.0389 60.7012 63.1892 59.8475 64.3468 59.2447C65.5045 58.6419 66.5583 58.3145 67.4907 58.2549C68.2417 58.2068 68.8398 58.342 69.3016 58.6505C69.7639 58.9676 70.0123 59.4632 70.0559 60.1451C70.12 61.1465 69.8128 62.1717 69.1252 63.2125C68.4377 64.2532 67.3611 65.3102 65.8874 66.3926C64.4132 67.4664 62.5833 68.5369 60.4054 69.5863L60.4152 69.603ZM60.5575 68.0337C61.9552 67.3895 63.1363 66.6119 64.1026 65.7267C65.0682 64.8328 65.769 63.9992 66.2039 63.2086C66.6387 62.418 66.8451 61.85 66.823 61.5047C66.801 61.1594 66.6237 60.9627 66.287 60.9843C66.0021 61.0025 65.5476 61.2136 64.9238 61.6262C64.3001 62.0388 63.683 62.555 63.0559 63.1845C62.4373 63.8135 61.8858 64.5422 61.4106 65.3787C60.9353 66.2152 60.6538 67.1 60.5494 68.0429L60.5575 68.0337Z" fill="black"/>
<path d="M71.8614 63.722C74.1383 61.3748 76.3821 59.593 78.584 58.3774C80.786 57.1617 82.5134 56.5225 83.7565 56.443C84.0932 56.4215 84.4128 56.5397 84.7153 56.7978C85.0179 57.0558 85.2633 57.3695 85.4591 57.721C85.6463 58.0731 85.7503 58.3438 85.7614 58.5165C85.7796 58.8014 85.6812 59.0244 85.465 59.1682C85.2488 59.312 84.8714 59.5095 84.331 59.7348C84.4598 59.9866 84.6184 60.2972 84.8251 60.6827C85.0231 61.0688 85.1817 61.3793 85.2926 61.6236C85.4036 61.8679 85.4692 62.0804 85.4813 62.2703C85.5056 62.6501 85.163 63.3915 84.4609 64.4766C83.7589 65.5616 83.2647 66.3733 82.9854 66.8853C82.7061 67.3972 82.5893 68.0114 82.6351 68.728C82.7102 69.902 83.2922 70.4629 84.3713 70.3939C85.4503 70.3249 87.1619 69.1666 89.3942 66.9348L89.4875 68.3938C85.7506 73.1228 83.0103 75.543 81.2751 75.654C80.6535 75.6937 80.2006 75.5233 79.9151 75.1255C79.6215 74.7369 79.4534 74.1409 79.4026 73.3467C79.322 72.0863 79.6544 70.2361 80.4171 67.795C78.26 70.5246 76.6505 72.4652 75.5892 73.6252C74.5278 74.7853 73.6303 75.3887 72.9051 75.4351C72.5512 75.4578 72.1002 75.1832 71.535 74.6126C70.9698 74.042 70.4534 73.2862 69.9864 72.3539C69.5193 71.4216 69.2567 70.4329 69.1905 69.397C69.1425 68.646 69.1718 68.02 69.2865 67.5099C69.4013 66.9998 69.6449 66.4729 70.0256 65.9198C70.4063 65.3667 71.0182 64.6341 71.8695 63.7129L71.8614 63.722ZM83.1233 60.3668C79.1091 62.5218 76.268 64.3157 74.5914 65.7491C72.9148 67.1826 72.1301 68.6023 72.2196 70.0008C72.2521 70.5101 72.365 70.919 72.5586 71.236C72.7522 71.553 73.0044 71.7015 73.3066 71.6822C73.4792 71.6712 73.7828 71.5391 74.2174 71.2859C75.8292 70.1947 77.2663 68.8112 78.5551 67.1426C79.8353 65.4745 81.3634 63.2097 83.1319 60.3662L83.1233 60.3668Z" fill="black"/>
<path d="M95.2908 54.0763L96.3181 54.0106C97.0675 52.4458 97.7587 51.3267 98.4004 50.6529C99.0421 49.9791 99.7991 49.6187 100.68 49.5624C101.56 49.5061 102.005 49.677 102.03 50.0741C102.042 50.264 101.73 50.8041 101.102 51.6937C100.474 52.5833 100.001 53.3243 99.6839 53.9167C100.232 53.9424 100.71 53.9724 101.136 53.9885C101.562 54.0047 101.893 54.0268 102.137 54.0459C101.338 55.7873 100.309 57.5867 99.0579 59.4436C98.6068 59.4378 98.2339 59.4356 97.9301 59.429C97.6263 59.4225 97.3139 59.4164 97.0106 59.4185C96.6982 59.4125 96.3167 59.4109 95.8742 59.4045C95.0993 60.8409 94.4623 62.1299 93.9534 63.2546C93.4446 64.3793 93.0597 65.4094 92.8069 66.3357C92.5541 67.262 92.4539 68.1352 92.5058 68.9467C92.5759 70.043 93.0515 70.5674 93.9234 70.5116C94.5277 70.473 95.3015 70.1028 96.2356 69.3929C97.1697 68.6831 98.4189 67.6151 99.9736 66.1721L100.076 67.7691C96.0747 72.7057 93.0556 75.2392 91.001 75.3706C90.2845 75.4164 89.6884 75.1771 89.2209 74.6436C88.7453 74.1192 88.4837 73.4165 88.4274 72.536C88.3898 71.949 88.466 71.242 88.6644 70.4145C88.8629 69.587 89.2248 68.333 89.7501 66.6525C89.5377 66.8568 89.3427 67.06 89.1557 67.2539C88.9688 67.4479 88.7985 67.6322 88.6353 67.79C88.4812 67.9559 88.3098 68.1228 88.1304 68.299C87.951 68.4752 87.7721 68.66 87.5932 68.8448L87.4878 67.1959C89.0645 65.6909 90.9358 63.1008 93.0765 59.436C92.8337 59.4342 92.6173 59.4394 92.4096 59.444C92.2024 59.4573 91.9601 59.4641 91.6666 59.4829C90.7256 59.543 90.0302 59.6482 89.581 59.8069C89.3944 59.8709 89.2164 59.9343 89.0557 59.9966C88.8955 60.0675 88.7763 60.1011 88.7159 60.105C88.6555 60.1088 88.6176 60.0592 88.6116 59.9643C88.5779 59.4377 88.8557 58.6311 89.4358 57.5365C89.9055 56.6137 90.3551 55.9175 90.8028 55.4641C91.2414 55.0027 91.8016 54.6808 92.465 54.4824C93.1284 54.2839 94.0736 54.1541 95.2994 54.0758L95.2908 54.0763Z" fill="black"/>
<path d="M98.4041 66.9829L98.3676 66.4132C102.192 61.826 104.821 58.6154 106.255 56.7814C106.475 54.7997 107.259 53.7701 108.597 53.6845C108.933 53.663 109.293 53.7353 109.685 53.9009L109.861 54.3491C109.813 54.5429 109.796 54.8127 109.818 55.1666C109.838 55.4688 109.986 56.0227 110.271 56.8279C110.557 57.6331 110.774 58.3127 110.938 58.8569C111.104 59.4098 111.204 60.0274 111.249 60.7267C111.316 61.7799 111.138 62.7967 110.725 63.794C110.312 64.7912 109.68 65.7504 108.831 66.6976C107.981 67.6361 106.873 68.617 105.499 69.6324C106.075 69.6909 106.536 69.7134 106.873 69.6919C107.529 69.6499 108.217 69.4412 108.956 69.0646C109.695 68.6879 110.436 68.2072 111.186 67.6044C111.936 67.0017 112.814 66.2348 113.803 65.2961L113.905 66.8931C111.995 69.0089 110.27 70.6361 108.73 71.7661C107.19 72.8961 105.842 73.4937 104.676 73.5683C103.183 73.6638 101.752 73.1138 100.402 71.926C99.6021 71.2143 99.0891 70.5104 98.863 69.8227C98.637 69.135 98.4814 68.1915 98.4052 67.0002L98.4041 66.9829ZM107.071 62.7621L106.416 59.3021C105.503 60.4787 103.534 62.7543 100.499 66.1295C101.471 66.2754 102.136 66.5103 102.512 66.8416C102.889 67.1729 103.424 67.8148 104.118 68.7759C105.169 68.2579 105.967 67.6001 106.497 66.7948C107.026 65.9895 107.252 64.9176 107.166 63.5795C107.157 63.4241 107.147 63.2773 107.13 63.1484C107.113 63.0195 107.097 62.8992 107.071 62.7708L107.071 62.7621Z" fill="black"/>
</svg>
